<?xml version="1.0" encoding="utf-8"?>
<!-- Generator: Adobe Illustrator 17.0.0, SVG Export Plug-In . SVG Version: 6.00 Build 0)  -->
<!DOCTYPE svg PUBLIC "-//W3C//DTD SVG 1.1//EN" "http://www.w3.org/Graphics/SVG/1.1/DTD/svg11.dtd">
<svg version="1.1" id="Layer_1" xmlns="http://www.w3.org/2000/svg" xmlns:xlink="http://www.w3.org/1999/xlink" x="0px" y="0px"
	 width="1000px" height="1000px" viewBox="0 0 1000 1000" enable-background="new 0 0 1000 1000" xml:space="preserve">
<g>
	<path fill="#C6A885" d="M193.339,191.474v-26.285c0-11.957-5.841-17.944-17.528-17.944h-6.258c-11.41,0-17.109,5.987-17.109,17.944
		v49.652c0,5.574,1.108,9.324,3.34,11.271c2.221,1.947,5.841,4.452,10.849,7.51l37.971,20.444
		c8.342,4.737,14.253,8.419,17.732,11.058c3.476,2.65,6.191,5.842,8.14,9.603c1.942,3.749,2.918,10.913,2.918,21.486v63.841
		c0,33.661-16.136,50.49-48.405,50.49h-24.614c-31.996,0-47.989-18.357-47.989-55.076v-15.02h40.058v16.27
		c0,11.683,5.979,17.525,17.941,17.525h7.097c10.568,0,15.857-5.841,15.857-17.525v-50.908c0-5.563-1.116-9.318-3.339-11.265
		c-2.229-1.941-5.842-4.447-10.85-7.515l-37.974-21.28c-8.344-4.442-14.395-8.202-18.15-11.265
		c-3.755-3.058-6.469-7.019-8.138-11.89c-1.668-4.865-2.502-11.198-2.502-18.987v-61.341c0-34.219,15.994-51.326,47.989-51.326
		h25.035c31.985,0,47.984,17.107,47.984,51.326v29.209H193.339z"/>
	<path fill="#C6A885" d="M377.028,410.543c-32.272,0-48.402-16.962-48.402-50.902V162.265c0-34.219,15.994-51.326,47.984-51.326
		h38.387c31.993,0,47.989,17.107,47.989,51.326v197.376c0,33.94-16.139,50.902-48.4,50.902H377.028z M386.628,374.242h20.446
		c10.568,0,15.854-5.841,15.854-17.525V164.77c0-11.684-5.984-17.525-17.941-17.525H386.21c-11.687,0-17.528,5.841-17.528,17.525
		v191.947C368.681,368.4,374.66,374.242,386.628,374.242z"/>
	<path fill="#C6A885" d="M618.722,287.029l37.137-176.09h44.232v299.604h-40.059l4.177-196.115l-30.046,141.87h-30.88
		l-30.043-141.87l4.177,196.115H537.35V110.939h44.24L618.722,287.029z"/>
	<path fill="#C6A885" d="M618.722,581.002l-37.137,176.09H537.35V457.489h40.055l-4.174,196.114l30.049-141.87h30.877l30.043,141.87
		l-4.174-196.114h40.064v299.603h-44.237L618.722,581.002z"/>
	<path fill="#C6A885" d="M791.988,410.543V110.939h99.307v36.306h-59.252v90.963h52.576v36.306h-52.576v99.728h59.252v36.301
		H791.988z"/>
	<path fill="#C6A885" d="M198.721,758.04V622.007h-49.239V758.04h-40.059V458.437h40.059v127.269h49.239V458.437h40.059V758.04
		H198.721z"/>
	<path fill="#C6A885" d="M378.245,758.04c-32.275,0-48.408-16.967-48.408-50.907V509.758c0-34.214,15.991-51.32,47.989-51.32h38.387
		c31.985,0,47.984,17.107,47.984,51.32v197.376c0,33.94-16.136,50.907-48.402,50.907H378.245z M387.836,721.74h20.446
		c10.57,0,15.86-5.841,15.86-17.531V512.263c0-11.684-5.984-17.52-17.949-17.52h-18.769c-11.687,0-17.528,5.836-17.528,17.52V704.21
		C369.895,715.899,375.874,721.74,387.836,721.74z"/>
	<path fill="#C6A885" d="M975.329,860.202H24.907V1h950.422V860.202z M58.808,826.301h882.619V34.901H58.808V826.301z"/>
	<g>
		<path fill="#FFFFFF" d="M135.745,976.027c5.777,4.91,12.657,7.404,20.633,7.471c9.432-0.139,14.214-3.621,14.35-10.445
			c0.067-5.591-3.088-8.955-9.463-10.082c-2.921-0.413-6.129-0.882-9.614-1.395c-6.246-1.066-10.992-3.448-14.244-7.148
			c-3.353-3.811-5.027-8.442-5.027-13.893c0-6.55,2.104-11.834,6.316-15.846c4.078-3.978,9.867-6.004,17.36-6.076
			c9.02,0.212,16.864,2.79,23.529,7.75l-6.127,9.323c-5.448-3.705-11.438-5.629-17.982-5.769c-3.393,0-6.213,0.882-8.47,2.628
			c-2.36,1.819-3.571,4.525-3.638,8.13c0,2.159,0.812,4.118,2.441,5.864c1.626,1.785,4.232,3.019,7.817,3.705
			c1.995,0.346,4.718,0.736,8.171,1.183c6.804,0.96,11.834,3.482,15.09,7.56c3.22,4.018,4.829,8.682,4.829,13.999
			c-0.362,14.334-8.855,21.604-25.47,21.816c-10.749,0-19.986-3.409-27.713-10.233L135.745,976.027z"/>
		<path fill="#FFFFFF" d="M312.864,929.304h-19.902v-10.071h50.802v10.071H323.85v64.879h-10.986V929.304z"/>
		<path fill="#FFFFFF" d="M454.07,956.711c0-8.726,0.249-14.562,0.745-17.52c0.53-2.952,1.342-5.34,2.441-7.153
			c1.755-3.453,4.578-6.522,8.462-9.223c3.811-2.728,8.573-4.129,14.278-4.202c5.775,0.073,10.587,1.474,14.434,4.218
			c3.816,2.706,6.57,5.797,8.26,9.251c1.23,1.819,2.075,4.201,2.538,7.147c0.432,2.946,0.645,8.777,0.645,17.481
			c0,8.564-0.212,14.356-0.645,17.375c-0.463,3.013-1.308,5.429-2.538,7.248c-1.691,3.459-4.444,6.511-8.26,9.15
			c-3.847,2.74-8.66,4.179-14.434,4.319c-5.705-0.139-10.467-1.579-14.278-4.319c-3.883-2.639-6.707-5.691-8.464-9.15
			c-0.53-1.133-1.01-2.215-1.442-3.242c-0.399-1.06-0.728-2.399-0.996-4.006C454.319,971.067,454.07,965.275,454.07,956.711z
			 M465.062,956.711c0,7.382,0.268,12.381,0.795,14.987c0.466,2.611,1.414,4.72,2.845,6.338c1.161,1.546,2.689,2.796,4.59,3.761
			c1.857,1.133,4.087,1.702,6.681,1.702c2.628,0,4.902-0.569,6.832-1.702c1.827-0.965,3.292-2.215,4.386-3.761
			c1.434-1.618,2.416-3.727,2.946-6.338c0.496-2.606,0.75-7.605,0.75-14.987c0-7.382-0.254-12.414-0.75-15.093
			c-0.53-2.544-1.512-4.62-2.946-6.238c-1.094-1.545-2.558-2.834-4.386-3.861c-1.931-0.999-4.205-1.529-6.832-1.601
			c-2.594,0.072-4.824,0.602-6.681,1.601c-1.9,1.027-3.429,2.316-4.59,3.861c-1.431,1.618-2.38,3.694-2.845,6.232
			C465.33,944.297,465.062,949.329,465.062,956.711z"/>
		<path fill="#FFFFFF" d="M626.02,919.233h28.364c6.05,0,10.983,1.646,14.807,4.932c4.6,3.738,6.994,9.067,7.195,15.991
			c-0.131,10.177-4.804,17.101-14.018,20.767l16.803,33.26h-13.056l-15.026-32.027h-14.077v32.027H626.02V919.233z M637.012,952.085
			h16.672c4.129-0.067,7.22-1.306,9.287-3.71c2.025-2.232,3.044-4.982,3.044-8.246c-0.067-3.917-1.28-6.752-3.646-8.503
			c-1.861-1.546-4.555-2.321-8.085-2.321h-17.272V952.085z"/>
		<path fill="#FFFFFF" d="M795.501,919.233h46.379v10.685h-35.388v21.448h30.205v10.065h-30.205v22.067h35.388v10.685h-46.379
			V919.233z"/>
	</g>
	<path fill="#C6A885" d="M831.408,736.175c0,11.728-9.51,21.236-21.236,21.236c-11.731,0-21.241-9.508-21.241-21.236
		c0-11.728,9.51-21.23,21.241-21.23C821.898,714.945,831.408,724.447,831.408,736.175z"/>
</g>
</svg>
